<?xml version="1.0" encoding="iso-8859-1"?>
<!-- Uploaded to: SVG Repo, www.svgrepo.com, Generator: SVG Repo Mixer Tools -->
<svg fill="#000000" height="800px" width="800px" version="1.1" id="Layer_1" xmlns="http://www.w3.org/2000/svg" xmlns:xlink="http://www.w3.org/1999/xlink" 
	 viewBox="0 0 475 475" xml:space="preserve">
<g transform="translate(0 -540.36)">
	<g>
		<g>
			<path d="M432.5,540.36h-390c-4.1,0-7.5,3.4-7.5,7.5v460c0,4.1,3.4,7.5,7.5,7.5h390c4.1,0,7.5-3.4,7.5-7.5v-460
				C440,543.76,436.6,540.36,432.5,540.36z M425,1000.36H50v-445h375V1000.36z"/>
			<path d="M89.3,774.86h296.4c4.1,0,7.5-3.4,7.5-7.5s-3.4-7.5-7.5-7.5H89.3c-4.1,0-7.5,3.4-7.5,7.5S85.2,774.86,89.3,774.86z"/>
			<path d="M89.3,816.76h296.4c4.1,0,7.5-3.4,7.5-7.5s-3.4-7.5-7.5-7.5H89.3c-4.1,0-7.5,3.4-7.5,7.5S85.2,816.76,89.3,816.76z"/>
			<path d="M89.3,857.86h296.4c4.1,0,7.5-3.4,7.5-7.5s-3.4-7.5-7.5-7.5H89.3c-4.1,0-7.5,3.4-7.5,7.5S85.2,857.86,89.3,857.86z"/>
			<path d="M89.3,898.96h296.4c4.1,0,7.5-3.4,7.5-7.5s-3.4-7.5-7.5-7.5H89.3c-4.1,0-7.5,3.4-7.5,7.5S85.2,898.96,89.3,898.96z"/>
			<path d="M317.9,925.86H157.2c-4.1,0-7.5,3.4-7.5,7.5s3.4,7.5,7.5,7.5h160.6c4.2,0,7.6-3.4,7.6-7.5S322,925.86,317.9,925.86z"/>
			<path d="M171.6,709.66l39,20.9c1.1,0.6,2.3,0.9,3.5,0.9c0.8,0,1.6-0.1,2.4-0.4c2-0.6,3.6-2.1,4.4-3.9l16.6-35.3l16.6,35.3
				c0.9,1.9,2.5,3.3,4.4,3.9c2,0.6,4.1,0.5,5.9-0.5l39-20.9c3.6-2,5-6.4,3.2-10l-23.4-46.5c-0.1-0.1-0.1-0.2-0.2-0.4
				c4.1-7.4,6.5-15.9,6.5-25c0-28.1-23.3-50.9-52-50.9s-52,22.9-52,50.9c0,9,2.4,17.6,6.5,25c-0.1,0.1-0.1,0.2-0.2,0.4l-23.4,46.5
				C166.6,703.26,168,707.76,171.6,709.66z M289.9,699.76l-25.6,13.8l-16.6-35.1c9.5-1.9,18.1-6.4,25-12.8L289.9,699.76z
				 M237.5,591.86c20.4,0,37,16.1,37,35.9c0,20.2-16.6,36.7-37,36.7c-20.4,0-37-16.5-37-36.7
				C200.5,607.96,217.1,591.86,237.5,591.86z M202.3,665.66c6.9,6.3,15.5,10.8,25,12.8l-16.6,35.1l-25.6-13.8L202.3,665.66z"/>
		</g>
	</g>
</g>
</svg>