<?xml version="1.0" encoding="iso-8859-1"?>
<!-- Uploaded to: SVG Repo, www.svgrepo.com, Generator: SVG Repo Mixer Tools -->
<!DOCTYPE svg PUBLIC "-//W3C//DTD SVG 1.1//EN" "http://www.w3.org/Graphics/SVG/1.1/DTD/svg11.dtd">
<svg fill="#000000" height="800px" width="800px" version="1.1" id="Capa_1" xmlns="http://www.w3.org/2000/svg" xmlns:xlink="http://www.w3.org/1999/xlink" 
	 viewBox="0 0 297 297" xml:space="preserve">
<g>
	<path d="M252.677,0H132.673c-13.796,0-25.02,11.229-25.02,25.031v65.635c0,13.801,11.224,25.029,25.02,25.029h12.403v19.343
		c0,4.115,2.479,7.824,6.28,9.398c1.259,0.521,2.579,0.774,3.89,0.774c2.648,0,5.252-1.035,7.198-2.983l26.508-26.531h63.725
		c13.796,0,25.021-11.229,25.021-25.029V25.031C277.697,11.229,266.473,0,252.677,0z M257.353,90.666
		c0,2.539-2.142,4.685-4.676,4.685h-67.94c-2.699,0-5.288,1.073-7.196,2.982l-12.12,12.132v-4.941
		c0-5.618-4.555-10.173-10.172-10.173h-22.575c-2.534,0-4.676-2.146-4.676-4.685V25.031c0-2.541,2.142-4.688,4.676-4.688h120.004
		c2.534,0,4.676,2.146,4.676,4.688V90.666z"/>
	<path d="M95.278,218.645c23.484-3.623,41.522-23.983,41.522-48.484c0-27.052-21.991-49.061-49.022-49.061
		c-27.033,0-49.027,22.009-49.027,49.061c0,24.499,18.041,44.86,41.526,48.484c-17.315,1.5-32.503,8.223-43.331,19.306
		c-11.99,12.274-18.083,29.257-17.619,49.114C19.456,292.59,23.971,297,29.496,297h116.556c5.525,0,10.041-4.411,10.169-9.935
		c0.461-19.86-5.634-36.845-17.626-49.118C127.77,226.866,112.587,220.146,95.278,218.645z M59.095,170.161
		c0-15.834,12.867-28.716,28.684-28.716c15.813,0,28.679,12.882,28.679,28.716c0,15.833-12.865,28.714-28.679,28.714
		C71.962,198.875,59.095,185.994,59.095,170.161z M40.171,276.656c1.317-9.913,5.109-18.122,11.328-24.488
		c8.505-8.705,21.388-13.5,36.277-13.5c14.884,0,27.764,4.793,36.267,13.495c6.22,6.366,10.014,14.578,11.332,24.493H40.171z"/>
</g>
</svg>